<?xml version="1.0" standalone="no"?>
<!DOCTYPE svg PUBLIC "-//W3C//DTD SVG 20010904//EN"
 "http://www.w3.org/TR/2001/REC-SVG-20010904/DTD/svg10.dtd">
<svg version="1.0" xmlns="http://www.w3.org/2000/svg"
 width="927.000000pt" height="257.000000pt" viewBox="0 0 927.000000 257.000000"
 preserveAspectRatio="xMidYMid meet">

<g transform="translate(0.000000,257.000000) scale(0.100000,-0.100000)"
fill="#000000" stroke="none">
<path d="M6785 1904 c-27 -7 -81 -13 -120 -14 -38 0 -75 -4 -82 -8 -6 -4 -14
-25 -18 -47 -4 -22 -51 -175 -105 -340 -54 -165 -126 -400 -160 -522 -33 -123
-67 -238 -75 -258 -8 -19 -15 -38 -15 -44 0 -11 260 -5 272 7 6 6 5 26 -2 53
-24 88 15 293 80 426 33 66 56 86 93 81 34 -5 32 -46 -13 -223 -22 -88 -40
-180 -40 -205 1 -177 174 -214 276 -60 29 44 25 60 -15 60 -64 0 -66 60 -8
250 46 152 53 215 32 285 -18 64 -48 85 -118 85 -35 0 -57 -8 -96 -34 -28 -19
-51 -33 -51 -32 0 2 24 70 53 152 59 163 97 243 151 319 55 76 46 92 -39 69z"/>
<path d="M1915 1694 c-148 -31 -280 -118 -329 -216 -31 -61 -33 -108 -7 -164
14 -31 28 -45 53 -53 53 -18 65 -8 70 57 5 75 40 145 103 207 44 45 114 90
123 80 4 -4 -107 -317 -164 -463 -107 -271 -198 -426 -281 -481 -57 -38 -72
-38 -134 -4 -55 31 -66 27 -75 -29 -10 -59 21 -143 69 -191 74 -74 165 -86
266 -36 109 55 160 139 274 454 105 293 247 749 247 796 0 56 -77 72 -215 43z"/>
<path d="M3984 1692 c-39 -25 -67 -91 -58 -138 11 -61 80 -106 136 -89 34 11
76 54 89 92 32 97 -81 189 -167 135z"/>
<path d="M5935 1660 c-117 -56 -167 -164 -166 -362 0 -69 -4 -120 -10 -124
-22 -13 -145 -7 -176 9 -79 41 -98 128 -42 192 22 25 39 35 60 35 36 0 46 20
29 61 -24 58 -105 74 -167 34 -56 -37 -79 -156 -48 -244 23 -67 62 -108 133
-143 59 -29 77 -33 160 -35 l94 -2 45 -103 c71 -162 83 -204 83 -283 0 -85
-25 -141 -83 -189 -53 -42 -137 -49 -197 -15 -114 64 -123 237 -15 295 31 16
39 17 67 5 58 -23 62 -20 76 40 12 48 11 61 -2 92 -23 57 -67 79 -148 75 -87
-5 -140 -39 -181 -118 -75 -148 -28 -337 106 -425 79 -51 152 -68 267 -63 83
4 108 10 166 37 112 52 173 134 195 260 20 111 -11 248 -99 434 l-46 99 40 34
c111 98 187 153 247 179 66 29 84 53 55 71 -20 13 -101 7 -140 -9 l-38 -16 0
42 c0 23 -8 58 -18 77 -35 72 -160 102 -247 60z m147 -67 c41 -37 10 -154 -66
-247 l-24 -29 -16 31 c-37 71 -32 181 10 232 29 34 67 39 96 13z"/>
<path d="M7732 1620 c-4 -3 -8 -30 -10 -60 -2 -30 -7 -71 -12 -91 -9 -33 -14
-37 -53 -43 -103 -16 -156 -67 -143 -138 l7 -33 -21 39 c-45 88 -107 125 -207
126 -108 0 -194 -46 -239 -128 -14 -26 -42 -75 -63 -109 -102 -167 -107 -374
-13 -484 98 -115 230 -102 367 35 84 84 134 177 166 306 11 47 28 101 37 120
9 19 16 56 15 82 -1 47 0 48 35 58 60 16 61 4 9 -153 -60 -182 -87 -297 -87
-370 0 -51 4 -61 33 -93 28 -31 42 -37 84 -41 47 -5 53 -3 92 33 44 39 76 92
82 134 4 26 2 26 -43 15 -67 -17 -59 79 25 315 l52 144 40 8 c43 9 79 38 101
80 26 49 20 58 -36 51 -27 -3 -50 -2 -50 3 0 5 14 44 31 87 16 44 29 86 27 94
-2 13 -22 16 -111 17 -60 1 -112 -1 -115 -4z m-426 -325 c12 -18 15 -40 12
-80 -3 -30 -7 -58 -10 -61 -10 -9 -78 7 -93 23 -29 28 -11 107 29 135 21 15
46 8 62 -17z m-95 -287 c38 -6 69 -15 69 -19 0 -19 -38 -107 -64 -147 -14 -23
-38 -48 -53 -55 -23 -10 -28 -8 -51 18 -23 28 -24 34 -19 117 6 96 12 112 34
104 8 -4 46 -11 84 -18z"/>
<path d="M4524 1436 c-18 -8 -49 -30 -71 -49 l-39 -36 4 36 c3 23 0 38 -9 44
-15 10 -209 1 -221 -10 -4 -3 -2 -24 3 -47 19 -76 -38 -325 -132 -571 -40
-107 -46 -152 -19 -144 8 2 67 7 130 10 108 6 115 7 112 26 -17 115 18 282 88
433 62 131 110 183 155 166 22 -9 19 -66 -5 -97 -25 -31 -25 -39 -2 -60 54
-49 174 23 201 120 15 51 14 61 -9 110 -33 73 -110 102 -186 69z"/>
<path d="M3248 1413 l-48 -4 0 -45 c0 -25 -7 -79 -15 -120 -14 -65 -180 -558
-281 -833 -18 -52 -34 -102 -34 -113 0 -24 26 -23 86 3 38 16 65 19 124 17 75
-3 75 -3 73 22 -1 14 -5 37 -8 53 -5 18 6 75 35 180 23 83 45 154 47 157 2 3
12 -5 21 -17 25 -33 86 -55 130 -47 102 19 223 119 275 227 45 93 70 208 65
296 -10 170 -88 248 -219 220 -39 -9 -54 -9 -57 0 -4 11 -84 12 -194 4z m270
-155 c7 -7 12 -40 12 -78 0 -162 -99 -360 -181 -360 -38 0 -46 31 -30 119 17
92 89 270 122 304 29 29 57 35 77 15z"/>
<path d="M4950 1411 c-66 -20 -150 -86 -150 -117 0 -6 -14 -30 -31 -54 -139
-191 -154 -432 -35 -555 99 -103 236 -79 370 67 75 80 119 165 151 290 13 51
31 110 39 130 18 42 20 76 6 98 -7 12 -12 12 -22 2 -18 -18 -25 -15 -32 13 -9
37 -65 96 -111 116 -42 19 -138 24 -185 10z m95 -115 c11 -17 15 -42 13 -83
l-3 -58 -40 3 c-57 5 -78 27 -72 75 6 43 41 87 69 87 9 0 25 -11 33 -24z
m-105 -286 c34 -6 69 -9 77 -6 18 7 12 -15 -30 -107 -27 -61 -74 -117 -97
-117 -4 0 -18 8 -30 18 -16 13 -24 32 -27 68 -7 66 14 167 32 160 8 -3 42 -10
75 -16z"/>
<path d="M2084 1395 c-11 -8 -12 -17 -2 -47 21 -70 -25 -255 -133 -526 -53
-132 -59 -168 -31 -176 9 -2 64 -2 122 2 98 7 105 8 101 27 -18 85 22 235 110
413 71 143 138 209 147 145 2 -12 -18 -76 -44 -144 -65 -174 -84 -245 -84
-315 0 -46 5 -68 20 -86 46 -60 139 -63 196 -7 38 37 39 51 3 59 -22 6 -24 11
-22 57 1 31 19 93 46 164 70 183 90 250 91 310 1 66 -17 93 -72 109 -45 12
-120 -4 -167 -36 -20 -13 -38 -24 -40 -24 -2 0 0 13 5 29 14 50 2 56 -121 56
-62 0 -118 -4 -125 -10z"/>
<path d="M2790 1389 c-99 -40 -129 -159 -70 -275 16 -32 30 -60 30 -61 0 -2
-11 -3 -25 -3 -70 0 -161 -80 -184 -162 -28 -98 18 -206 104 -248 104 -50 250
3 306 112 52 101 46 192 -21 339 -48 104 -60 168 -35 192 36 36 67 8 48 -43
-14 -36 -1 -57 26 -44 19 9 131 151 131 166 0 11 -24 10 -52 -1 -18 -7 -38 -3
-78 15 -58 25 -136 30 -180 13z m-2 -480 c-7 -65 -34 -103 -79 -107 -35 -4
-59 16 -59 49 0 25 43 73 82 92 55 27 61 23 56 -34z"/>
<path d="M3882 1387 c-13 -16 -105 -297 -137 -417 -41 -157 -29 -254 40 -308
59 -46 147 -32 185 30 27 45 25 68 -7 94 -24 19 -28 29 -27 72 3 70 37 197 95
344 28 70 49 138 47 150 -3 21 -9 23 -83 28 -44 3 -85 9 -91 13 -7 4 -16 1
-22 -6z"/>
</g>
</svg>
