<svg xmlns="http://www.w3.org/2000/svg" viewBox="0 0 672.87 163.3"><defs><style>.cls-1{fill:#9747ff;}</style></defs><title>Asset 1</title><g id="Layer_2" data-name="Layer 2"><g id="Layer_1-2" data-name="Layer 1"><path class="cls-1" d="M551.29,1a66,66,0,0,1-12,1.4c-3.8,0-7.5.4-8.2.8s-1.4,2.5-1.8,4.7-5.1,17.5-10.5,34-12.6,40-16,52.2-6.7,23.8-7.5,25.8a20.17,20.17,0,0,0-1.5,4.4c0,1.1,26,.5,27.2-.7.6-.6.5-2.6-.2-5.3-2.4-8.8,1.5-29.3,8-42.6,3.3-6.6,5.6-8.6,9.3-8.1,3.4.5,3.2,4.6-1.3,22.3-2.2,8.8-4,18-4,20.5.1,17.7,17.4,21.4,27.6,6,2.9-4.4,2.5-6-1.5-6-6.4,0-6.6-6-.8-25,4.6-15.2,5.3-21.5,3.2-28.5-1.8-6.4-4.8-8.5-11.8-8.5-3.5,0-5.7.8-9.6,3.4a48,48,0,0,1-5.1,3.2c0-.2,2.4-7,5.3-15.2,5.9-16.3,9.7-24.3,15.1-31.9S559.79-1.33,551.29,1Z"/><path class="cls-1" d="M64.29,22c-14.8,3.1-28,11.8-32.9,21.6-3.1,6.1-3.3,10.8-.7,16.4,1.4,3.1,2.8,4.5,5.3,5.3,5.3,1.8,6.5.8,7-5.7.5-7.5,4-14.5,10.3-20.7,4.4-4.5,11.4-9,12.3-8,.4.4-10.7,31.7-16.4,46.3-10.7,27.1-19.8,42.6-28.1,48.1-5.7,3.8-7.2,3.8-13.4.4-5.5-3.1-6.6-2.7-7.5,2.9-1,5.9,2.1,14.3,6.9,19.1,7.4,7.4,16.5,8.6,26.6,3.6,10.9-5.5,16-13.9,27.4-45.4,10.5-29.3,24.7-74.9,24.7-79.6C85.79,20.67,78.09,19.07,64.29,22Z"/><path class="cls-1" d="M271.19,22.17c-3.9,2.5-6.7,9.1-5.8,13.8,1.1,6.1,8,10.6,13.6,8.9,3.4-1.1,7.6-5.4,8.9-9.2C291.09,26,279.79,16.77,271.19,22.17Z"/><path class="cls-1" d="M466.29,25.37c-11.7,5.6-16.7,16.4-16.6,36.2,0,6.9-.4,12-1,12.4-2.2,1.3-14.5.7-17.6-.9-7.9-4.1-9.8-12.8-4.2-19.2,2.2-2.5,3.9-3.5,6-3.5,3.6,0,4.6-2,2.9-6.1-2.4-5.8-10.5-7.4-16.7-3.4-5.6,3.7-7.9,15.6-4.8,24.4,2.3,6.7,6.2,10.8,13.3,14.3,5.9,2.9,7.7,3.3,16,3.5l9.4.2,4.5,10.3c7.1,16.2,8.3,20.4,8.3,28.3,0,8.5-2.5,14.1-8.3,18.9a18.48,18.48,0,0,1-19.7,1.5c-11.4-6.4-12.3-23.7-1.5-29.5,3.1-1.6,3.9-1.7,6.7-.5,5.8,2.3,6.2,2,7.6-4,1.2-4.8,1.1-6.1-.2-9.2-2.3-5.7-6.7-7.9-14.8-7.5-8.7.5-14,3.9-18.1,11.8-7.5,14.8-2.8,33.7,10.6,42.5,7.9,5.1,15.2,6.8,26.7,6.3,8.3-.4,10.8-1,16.6-3.7,11.2-5.2,17.3-13.4,19.5-26,2-11.1-1.1-24.8-9.9-43.4l-4.6-9.9,4-3.4c11.1-9.8,18.7-15.3,24.7-17.9,6.6-2.9,8.4-5.3,5.5-7.1-2-1.3-10.1-.7-14,.9l-3.8,1.6v-4.2a19.77,19.77,0,0,0-1.8-7.7C487.49,24.17,475,21.17,466.29,25.37Zm14.7,6.7c4.1,3.7,1,15.4-6.6,24.7l-2.4,2.9-1.6-3.1c-3.7-7.1-3.2-18.1,1-23.2C474.29,30,478.09,29.47,481,32.07Z"/><path class="cls-1" d="M646,29.37c-.4.3-.8,3-1,6a65.27,65.27,0,0,1-1.2,9.1c-.9,3.3-1.4,3.7-5.3,4.3-10.3,1.6-15.6,6.7-14.3,13.8l.7,3.3-2.1-3.9c-4.5-8.8-10.7-12.5-20.7-12.6-10.8,0-19.4,4.6-23.9,12.8-1.4,2.6-4.2,7.5-6.3,10.9-10.2,16.7-10.7,37.4-1.3,48.4,9.8,11.5,23,10.2,36.7-3.5,8.4-8.4,13.4-17.7,16.6-30.6a80.84,80.84,0,0,1,3.7-12,21,21,0,0,0,1.5-8.2c-.1-4.7,0-4.8,3.5-5.8,6-1.6,6.1-.4.9,15.3-6,18.2-8.7,29.7-8.7,37,0,5.1.4,6.1,3.3,9.3s4.2,3.7,8.4,4.1c4.7.5,5.3.3,9.2-3.3,4.4-3.9,7.6-9.2,8.2-13.4.4-2.6.2-2.6-4.3-1.5-6.7,1.7-5.9-7.9,2.5-31.5l5.2-14.4,4-.8a15,15,0,0,0,10.1-8c2.6-4.9,2-5.8-3.6-5.1-2.7.3-5,.2-5-.3a77.41,77.41,0,0,1,3.1-8.7c1.6-4.4,2.9-8.6,2.7-9.4-.2-1.3-2.2-1.6-11.1-1.7C651.49,28.87,646.29,29.07,646,29.37Zm-42.6,32.5c1.2,1.8,1.5,4,1.2,8-.3,3-.7,5.8-1,6.1-1,.9-7.8-.7-9.3-2.3-2.9-2.8-1.1-10.7,2.9-13.5C599.29,58.67,601.79,59.37,603.39,61.87Zm-9.5,28.7c3.8.6,6.9,1.5,6.9,1.9,0,1.9-3.8,10.7-6.4,14.7-1.4,2.3-3.8,4.8-5.3,5.5-2.3,1-2.8.8-5.1-1.8-2.3-2.8-2.4-3.4-1.9-11.7.6-9.6,1.2-11.2,3.4-10.4A68.43,68.43,0,0,0,593.89,90.57Z"/><path class="cls-1" d="M325.19,47.77a36.46,36.46,0,0,0-7.1,4.9l-3.9,3.6.4-3.6c.3-2.3,0-3.8-.9-4.4-1.5-1-20.9-.1-22.1,1-.4.3-.2,2.4.3,4.7,1.9,7.6-3.8,32.5-13.2,57.1-4,10.7-4.6,15.2-1.9,14.4.8-.2,6.7-.7,13-1,10.8-.6,11.5-.7,11.2-2.6-1.7-11.5,1.8-28.2,8.8-43.3,6.2-13.1,11-18.3,15.5-16.6,2.2.9,1.9,6.6-.5,9.7s-2.5,3.9-.2,6c5.4,4.9,17.4-2.3,20.1-12,1.5-5.1,1.4-6.1-.9-11C340.49,47.37,332.79,44.47,325.19,47.77Z"/><path class="cls-1" d="M197.59,50.07l-4.8.4V55a81.1,81.1,0,0,1-1.5,12c-1.4,6.5-18,55.8-28.1,83.3-1.8,5.2-3.4,10.2-3.4,11.3,0,2.4,2.6,2.3,8.6-.3,3.8-1.6,6.5-1.9,12.4-1.7,7.5.3,7.5.3,7.3-2.2-.1-1.4-.5-3.7-.8-5.3-.5-1.8.6-7.5,3.5-18,2.3-8.3,4.5-15.4,4.7-15.7s1.2.5,2.1,1.7c2.5,3.3,8.6,5.5,13,4.7,10.2-1.9,22.3-11.9,27.5-22.7,4.5-9.3,7-20.8,6.5-29.6-1-17-8.8-24.8-21.9-22-3.9.9-5.4.9-5.7,0C216.59,49.37,208.59,49.27,197.59,50.07Zm27,15.5c.7.7,1.2,4,1.2,7.8,0,16.2-9.9,36-18.1,36-3.8,0-4.6-3.1-3-11.9,1.7-9.2,8.9-27,12.2-30.4C219.79,64.17,222.59,63.57,224.59,65.57Z"/><path class="cls-1" d="M367.79,50.27c-6.6,2-15,8.6-15,11.7,0,.6-1.4,3-3.1,5.4-13.9,19.1-15.4,43.2-3.5,55.5,9.9,10.3,23.6,7.9,37-6.7,7.5-8,11.9-16.5,15.1-29,1.3-5.1,3.1-11,3.9-13,1.8-4.2,2-7.6.6-9.8-.7-1.2-1.2-1.2-2.2-.2-1.8,1.8-2.5,1.5-3.2-1.3-.9-3.7-6.5-9.6-11.1-11.6C382.09,49.37,372.49,48.87,367.79,50.27Zm9.5,11.5c1.1,1.7,1.5,4.2,1.3,8.3l-.3,5.8-4-.3c-5.7-.5-7.8-2.7-7.2-7.5.6-4.3,4.1-8.7,6.9-8.7A5.13,5.13,0,0,1,377.29,61.77Zm-10.5,28.6c3.4.6,6.9.9,7.7.6,1.8-.7,1.2,1.5-3,10.7-2.7,6.1-7.4,11.7-9.7,11.7a8.64,8.64,0,0,1-3-1.8c-1.6-1.3-2.4-3.2-2.7-6.8-.7-6.6,1.4-16.7,3.2-16C360.09,89.07,363.49,89.77,366.79,90.37Z"/><path class="cls-1" d="M81.19,51.87c-1.1.8-1.2,1.7-.2,4.7,2.1,7-2.5,25.5-13.3,52.6-5.3,13.2-5.9,16.8-3.1,17.6a86.93,86.93,0,0,0,12.2-.2c9.8-.7,10.5-.8,10.1-2.7-1.8-8.5,2.2-23.5,11-41.3,7.1-14.3,13.8-20.9,14.7-14.5.2,1.2-1.8,7.6-4.4,14.4-6.5,17.4-8.4,24.5-8.4,31.5,0,4.6.5,6.8,2,8.6,4.6,6,13.9,6.3,19.6.7,3.8-3.7,3.9-5.1.3-5.9-2.2-.6-2.4-1.1-2.2-5.7.1-3.1,1.9-9.3,4.6-16.4,7-18.3,9-25,9.1-31,.1-6.6-1.7-9.3-7.2-10.9-4.5-1.2-12,.4-16.7,3.6a33.63,33.63,0,0,1-4,2.4c-.2,0,0-1.3.5-2.9,1.4-5,.2-5.6-12.1-5.6C87.49,50.87,81.89,51.27,81.19,51.87Z"/><path class="cls-1" d="M151.79,52.47c-9.9,4-12.9,15.9-7,27.5,1.6,3.2,3,6,3,6.1s-1.1.3-2.5.3c-7,0-16.1,8-18.4,16.2-2.8,9.8,1.8,20.6,10.4,24.8,10.4,5,25-.3,30.6-11.2,5.2-10.1,4.6-19.2-2.1-33.9-4.8-10.4-6-16.8-3.5-19.2,3.6-3.6,6.7-.8,4.8,4.3-1.4,3.6-.1,5.7,2.6,4.4,1.9-.9,13.1-15.1,13.1-16.6,0-1.1-2.4-1-5.2.1-1.8.7-3.8.3-7.8-1.5C164,51.27,156.19,50.77,151.79,52.47Zm-.2,48c-.7,6.5-3.4,10.3-7.9,10.7-3.5.4-5.9-1.6-5.9-4.9,0-2.5,4.3-7.3,8.2-9.2C151.49,94.37,152.09,94.77,151.59,100.47Z"/><path class="cls-1" d="M261,52.67c-1.3,1.6-10.5,29.7-13.7,41.7-4.1,15.7-2.9,25.4,4,30.8,5.9,4.6,14.7,3.2,18.5-3,2.7-4.5,2.5-6.8-.7-9.4-2.4-1.9-2.8-2.9-2.7-7.2.3-7,3.7-19.7,9.5-34.4,2.8-7,4.9-13.8,4.7-15-.3-2.1-.9-2.3-8.3-2.8-4.4-.3-8.5-.9-9.1-1.3A1.79,1.79,0,0,0,261,52.67Z"/></g></g></svg>